<svg width="64" height="64" viewBox="0 0 64 64" fill="none" xmlns="http://www.w3.org/2000/svg">
  <title>Contact</title>
  <path d="M8 8H52V12H56V52H52V56H8V52H4V12H8V8Z" fill="#0A0A0A"/>
  <path d="M10 12H50V16H54V48H50V52H10V48H8V16H10V12Z" fill="#8053FC"/>
  <path d="M14 20H48V24H52V42H48V46H14V42H12V24H14V20Z" fill="#F5F5F2"/>
  <path d="M16 24H48V28H44V32H40V36H24V32H20V28H16V24Z" fill="#0A0A0A"/>
  <path d="M16 30H20V34H24V38H40V34H44V30H48V42H16V30Z" fill="#D9D9D4"/>
  <path d="M12 14H18V18H12V14ZM22 14H28V18H22V14ZM46 46H50V50H46V46Z" fill="#C5AFFF"/>
</svg>
